<svg width="16" height="17" viewBox="0 0 16 17" fill="none" xmlns="http://www.w3.org/2000/svg">
<g clip-path="url(#clip0_96_902)">
<path d="M12 7.16671L9.33334 4.50004M1.66666 14.8334L3.9229 14.5827C4.19856 14.5521 4.33639 14.5367 4.46522 14.495C4.57952 14.458 4.68829 14.4058 4.78858 14.3396C4.90163 14.2651 4.99969 14.167 5.19581 13.9709L14 5.16671C14.7364 4.43033 14.7364 3.23642 14 2.50004C13.2636 1.76366 12.0697 1.76366 11.3333 2.50004L2.52914 11.3042C2.33302 11.5003 2.23496 11.5984 2.16041 11.7114C2.09428 11.8117 2.042 11.9205 2.005 12.0348C1.96329 12.1636 1.94798 12.3015 1.91735 12.5771L1.66666 14.8334Z" stroke="black" stroke-width="2" stroke-linecap="round" stroke-linejoin="round"/>
</g>
<defs>
<clipPath id="clip0_96_902">
<rect width="16" height="16" fill="white" transform="translate(0 0.5)"/>
</clipPath>
</defs>
</svg>
