<svg width="35" height="35" viewBox="0 0 35 35" fill="none" xmlns="http://www.w3.org/2000/svg">
<path fill-rule="evenodd" clip-rule="evenodd" d="M11.6667 4.37501C11.6667 3.5696 12.3196 2.91667 13.125 2.91667H21.875C22.6804 2.91667 23.3333 3.5696 23.3333 4.37501C23.3333 5.18043 22.6804 5.83334 21.875 5.83334H18.9583V29.1667H21.875C22.6804 29.1667 23.3333 29.8196 23.3333 30.625C23.3333 31.4304 22.6804 32.0833 21.875 32.0833H13.125C12.3196 32.0833 11.6667 31.4304 11.6667 30.625C11.6667 29.8196 12.3196 29.1667 13.125 29.1667H16.0417V5.83334H13.125C12.3196 5.83334 11.6667 5.18041 11.6667 4.37501ZM11.3575 8.75H11.6667C12.4721 8.75 13.125 9.40293 13.125 10.2083C13.125 11.0137 12.4721 11.6667 11.6667 11.6667H11.4187C10.1485 11.6667 9.28499 11.6678 8.61794 11.7232C7.96834 11.7772 7.63674 11.8749 7.40548 11.995C6.87278 12.2718 6.43843 12.7061 6.1617 13.2388C6.04157 13.4701 5.94384 13.8017 5.88989 14.4513C5.83449 15.1184 5.83332 15.9819 5.83332 17.2521V17.7479C5.83332 19.0181 5.83449 19.8816 5.88989 20.5486C5.94384 21.1983 6.04157 21.53 6.1617 21.7611C6.43843 22.2938 6.87278 22.7283 7.40548 23.0049C7.63674 23.1251 7.96835 23.2228 8.61794 23.2768C9.28499 23.3322 10.1485 23.3333 11.4187 23.3333H11.6667C12.4721 23.3333 13.125 23.9862 13.125 24.7917C13.125 25.5971 12.4721 26.25 11.6667 26.25H11.3575C10.1638 26.25 9.17864 26.25 8.37655 26.1834C7.54334 26.1142 6.77794 25.9656 6.06097 25.5933C4.99555 25.0399 4.12685 24.1711 3.57342 23.1057C3.20097 22.3888 3.05243 21.6233 2.98323 20.7901C2.91663 19.9881 2.91664 19.0028 2.91666 17.8092V17.1908C2.91664 15.9972 2.91663 15.0119 2.98323 14.2099C3.05243 13.3767 3.20097 12.6113 3.57342 11.8943C4.12685 10.8289 4.99555 9.9602 6.06097 9.40676C6.77794 9.03432 7.54334 8.88578 8.37655 8.81658C9.17864 8.74998 10.1638 8.74999 11.3575 8.75ZM26.382 11.7232C25.7149 11.6678 24.8514 11.6667 23.5812 11.6667H23.3333C22.5279 11.6667 21.875 11.0137 21.875 10.2083C21.875 9.40293 22.5279 8.75 23.3333 8.75H23.6425C24.8361 8.74999 25.8214 8.74998 26.6235 8.81658C27.4566 8.88578 28.2221 9.03432 28.939 9.40676C30.0045 9.9602 30.8732 10.8289 31.4266 11.8943C31.7989 12.6113 31.9475 13.3767 32.0167 14.2099C32.0833 15.0119 32.0833 15.9972 32.0833 17.1908V17.8092C32.0833 19.0028 32.0833 19.9881 32.0167 20.7901C31.9475 21.6233 31.7989 22.3888 31.4266 23.1057C30.8732 24.1711 30.0045 25.0399 28.939 25.5933C28.2221 25.9656 27.4566 26.1142 26.6235 26.1834C25.8214 26.25 24.8361 26.25 23.6425 26.25H23.3333C22.5279 26.25 21.875 25.5971 21.875 24.7917C21.875 23.9862 22.5279 23.3333 23.3333 23.3333H23.5812C24.8514 23.3333 25.7149 23.3322 26.382 23.2768C27.0317 23.2228 27.3633 23.1251 27.5944 23.0049C28.1272 22.7283 28.5616 22.2938 28.8382 21.7611C28.9584 21.53 29.0561 21.1983 29.1101 20.5486C29.1655 19.8816 29.1667 19.0181 29.1667 17.7479V17.2521C29.1667 15.9819 29.1655 15.1184 29.1101 14.4513C29.0561 13.8017 28.9584 13.4701 28.8382 13.2388C28.5616 12.7061 28.1272 12.2718 27.5944 11.995C27.3633 11.8749 27.0317 11.7772 26.382 11.7232Z" fill="#333333"/>
</svg>
