<svg width="32" height="32" viewBox="0 0 32 32" fill="none" xmlns="http://www.w3.org/2000/svg">
<path d="M16 20.0001C18.2091 20.0001 20 18.2092 20 16.0001C20 13.7909 18.2091 12.0001 16 12.0001C13.7909 12.0001 12 13.7909 12 16.0001C12 18.2092 13.7909 20.0001 16 20.0001Z" stroke="black" stroke-width="2" stroke-linecap="round" stroke-linejoin="round"/>
<path d="M24.9697 19.6364C24.8083 20.002 24.7602 20.4076 24.8315 20.8008C24.9028 21.194 25.0902 21.5568 25.3697 21.8425L25.4424 21.9152C25.6678 22.1404 25.8466 22.4077 25.9686 22.702C26.0906 22.9963 26.1534 23.3118 26.1534 23.6304C26.1534 23.949 26.0906 24.2644 25.9686 24.5587C25.8466 24.853 25.6678 25.1204 25.4424 25.3455C25.2173 25.5709 24.9499 25.7497 24.6556 25.8717C24.3613 25.9937 24.0458 26.0565 23.7273 26.0565C23.4087 26.0565 23.0932 25.9937 22.7989 25.8717C22.5046 25.7497 22.2373 25.5709 22.0121 25.3455L21.9394 25.2728C21.6537 24.9934 21.2909 24.8059 20.8977 24.7346C20.5045 24.6633 20.0989 24.7115 19.7333 24.8728C19.3748 25.0265 19.0691 25.2816 18.8537 25.6068C18.6383 25.932 18.5228 26.3131 18.5212 26.7031V26.9092C18.5212 27.5521 18.2658 28.1687 17.8112 28.6234C17.3565 29.078 16.7399 29.3334 16.097 29.3334C15.454 29.3334 14.8374 29.078 14.3828 28.6234C13.9281 28.1687 13.6727 27.5521 13.6727 26.9092V26.8001C13.6633 26.3989 13.5335 26.0098 13.3 25.6834C13.0665 25.3569 12.7403 25.1083 12.3636 24.9698C11.998 24.8084 11.5925 24.7603 11.1993 24.8316C10.8061 24.9029 10.4432 25.0903 10.1576 25.3698L10.0848 25.4425C9.85969 25.6679 9.59233 25.8467 9.29803 25.9687C9.00373 26.0907 8.68827 26.1535 8.36969 26.1535C8.0511 26.1535 7.73565 26.0907 7.44135 25.9687C7.14705 25.8467 6.87968 25.6679 6.65454 25.4425C6.42914 25.2174 6.25033 24.95 6.12833 24.6557C6.00633 24.3614 5.94354 24.0459 5.94354 23.7274C5.94354 23.4088 6.00633 23.0933 6.12833 22.799C6.25033 22.5047 6.42914 22.2373 6.65454 22.0122L6.72726 21.9395C7.0067 21.6538 7.19415 21.291 7.26545 20.8978C7.33675 20.5046 7.28861 20.099 7.12726 19.7334C6.97361 19.3749 6.71848 19.0692 6.39328 18.8538C6.06808 18.6384 5.687 18.5228 5.29696 18.5213H5.0909C4.44795 18.5213 3.83133 18.2659 3.3767 17.8112C2.92207 17.3566 2.66666 16.74 2.66666 16.0971C2.66666 15.4541 2.92207 14.8375 3.3767 14.3829C3.83133 13.9282 4.44795 13.6728 5.0909 13.6728H5.19999C5.6012 13.6634 5.9903 13.5336 6.31672 13.3001C6.64313 13.0666 6.89177 12.7404 7.03029 12.3637C7.19164 11.9981 7.23978 11.5926 7.16848 11.1994C7.09718 10.8062 6.90973 10.4433 6.63029 10.1577L6.55757 10.0849C6.33217 9.85978 6.15336 9.59242 6.03136 9.29812C5.90936 9.00382 5.84657 8.68836 5.84657 8.36978C5.84657 8.0512 5.90936 7.73574 6.03136 7.44144C6.15336 7.14714 6.33217 6.87977 6.55757 6.65463C6.78271 6.42923 7.05008 6.25042 7.34438 6.12842C7.63868 6.00642 7.95413 5.94363 8.27272 5.94363C8.5913 5.94363 8.90676 6.00642 9.20106 6.12842C9.49536 6.25042 9.76272 6.42923 9.98787 6.65463L10.0606 6.72735C10.3463 7.00679 10.7091 7.19425 11.1023 7.26554C11.4955 7.33684 11.9011 7.28871 12.2667 7.12735H12.3636C12.7221 6.9737 13.0279 6.71857 13.2433 6.39337C13.4586 6.06817 13.5742 5.6871 13.5757 5.29705V5.09099C13.5757 4.44804 13.8312 3.83143 14.2858 3.37679C14.7404 2.92216 15.357 2.66675 16 2.66675C16.6429 2.66675 17.2596 2.92216 17.7142 3.37679C18.1688 3.83143 18.4242 4.44804 18.4242 5.09099V5.20008C18.4258 5.59013 18.5414 5.9712 18.7567 6.2964C18.9721 6.6216 19.2778 6.87673 19.6364 7.03038C20.0019 7.19174 20.4075 7.23987 20.8007 7.16857C21.1939 7.09728 21.5567 6.90982 21.8424 6.63038L21.9151 6.55766C22.1403 6.33226 22.4077 6.15345 22.702 6.03145C22.9963 5.90945 23.3117 5.84666 23.6303 5.84666C23.9489 5.84666 24.2643 5.90945 24.5586 6.03145C24.8529 6.15345 25.1203 6.33226 25.3454 6.55766C25.5708 6.7828 25.7497 7.05017 25.8717 7.34447C25.9936 7.63877 26.0564 7.95423 26.0564 8.27281C26.0564 8.59139 25.9936 8.90685 25.8717 9.20115C25.7497 9.49545 25.5708 9.76281 25.3454 9.98796L25.2727 10.0607C24.9933 10.3464 24.8058 10.7092 24.7345 11.1024C24.6632 11.4956 24.7114 11.9012 24.8727 12.2667V12.3637C25.0264 12.7222 25.2815 13.028 25.6067 13.2433C25.9319 13.4587 26.313 13.5743 26.703 13.5758H26.9091C27.552 13.5758 28.1686 13.8313 28.6233 14.2859C29.0779 14.7405 29.3333 15.3571 29.3333 16.0001C29.3333 16.643 29.0779 17.2596 28.6233 17.7143C28.1686 18.1689 27.552 18.4243 26.9091 18.4243H26.8C26.4099 18.4259 26.0289 18.5415 25.7037 18.7568C25.3785 18.9722 25.1233 19.2779 24.9697 19.6364Z" stroke="black" stroke-width="2" stroke-linecap="round" stroke-linejoin="round"/>
</svg>
